<svg width="256" height="256" viewBox="0 0 256 256" xmlns="http://www.w3.org/2000/svg">
  <defs>
    <linearGradient id="bg" x1="0%" y1="0%" x2="100%" y2="100%">
      <stop offset="0%" stop-color="#0F172A" />
      <stop offset="100%" stop-color="#1E293B" />
    </linearGradient>
    <linearGradient id="primary" x1="0%" y1="0%" x2="100%" y2="100%">
      <stop offset="0%" stop-color="#38BDF8" />
      <stop offset="100%" stop-color="#0284C7" />
    </linearGradient>
    <linearGradient id="accent" x1="0%" y1="0%" x2="100%" y2="100%">
      <stop offset="0%" stop-color="#F472B6" />
      <stop offset="100%" stop-color="#DB2777" />
    </linearGradient>
  </defs>
  
  <rect width="256" height="256" rx="56" fill="url(#bg)"/>
  
  <!-- YAML Text -->
  <text x="128" y="90" font-family="-apple-system, BlinkMacSystemFont, 'Segoe UI', Roboto, Helvetica, Arial, sans-serif" font-weight="900" font-size="48" fill="#FFFFFF" text-anchor="middle" letter-spacing="2">YAML</text>
  
  <!-- YAML Indentation Lines -->
  <rect x="56" y="120" width="48" height="16" rx="8" fill="url(#primary)" />
  <rect x="116" y="120" width="84" height="16" rx="8" fill="#475569" />
  
  <rect x="88" y="156" width="40" height="16" rx="8" fill="url(#primary)" />
  <rect x="140" y="156" width="60" height="16" rx="8" fill="#475569" />
  
  <rect x="88" y="192" width="56" height="16" rx="8" fill="url(#primary)" />
  <rect x="156" y="192" width="44" height="16" rx="8" fill="#475569" />

  <!-- Magic Wand / Sparkles for Formatting -->
  <path d="M 200 30 L 204 44 L 218 48 L 204 52 L 200 66 L 196 52 L 182 48 L 196 44 Z" fill="url(#accent)" />
  <path d="M 220 70 L 222 78 L 230 80 L 222 82 L 220 90 L 218 82 L 210 80 L 218 78 Z" fill="url(#accent)" />
</svg>