<svg width="256" height="256" viewBox="0 0 256 256" xmlns="http://www.w3.org/2000/svg">
  <defs>
    <linearGradient id="bg" x1="0%" y1="0%" x2="100%" y2="100%">
      <stop offset="0%" stop-color="#0F172A" />
      <stop offset="100%" stop-color="#1E293B" />
    </linearGradient>
    <linearGradient id="primary" x1="0%" y1="0%" x2="100%" y2="100%">
      <stop offset="0%" stop-color="#38BDF8" />
      <stop offset="100%" stop-color="#0284C7" />
    </linearGradient>
    <linearGradient id="accent" x1="0%" y1="0%" x2="100%" y2="100%">
      <stop offset="0%" stop-color="#F472B6" />
      <stop offset="100%" stop-color="#DB2777" />
    </linearGradient>
  </defs>
  
  <rect width="256" height="256" rx="56" fill="url(#bg)"/>
  
  <!-- YAML Indentation Lines -->
  <rect x="56" y="72" width="48" height="16" rx="8" fill="url(#primary)" />
  <rect x="116" y="72" width="84" height="16" rx="8" fill="#475569" />
  
  <rect x="88" y="108" width="40" height="16" rx="8" fill="url(#primary)" />
  <rect x="140" y="108" width="60" height="16" rx="8" fill="#475569" />
  
  <rect x="88" y="144" width="56" height="16" rx="8" fill="url(#primary)" />
  <rect x="156" y="144" width="44" height="16" rx="8" fill="#475569" />
  
  <rect x="56" y="180" width="64" height="16" rx="8" fill="url(#primary)" />
  <rect x="132" y="180" width="68" height="16" rx="8" fill="#475569" />

  <!-- Magic Wand / Sparkles for Formatting -->
  <path d="M 180 50 L 184 64 L 198 68 L 184 72 L 180 86 L 176 72 L 162 68 L 176 64 Z" fill="url(#accent)" />
  <path d="M 210 90 L 212 98 L 220 100 L 212 102 L 210 110 L 208 102 L 200 100 L 208 98 Z" fill="url(#accent)" />
</svg>